<svg id="mid_part" data-name="mid part" xmlns="http://www.w3.org/2000/svg" width="576.445" height="494.868" viewBox="0 0 576.445 494.868">
  <path id="Path_2902" d="M755.758,432.38,467.42,307.22V468.4L672.01,553.57V796.406H834.748V706.514l8.262-135.263,196.328-67.221V307.22Z" transform="translate(-465.11 -303.802)" fill="#767e94"/>
  <path id="Path_2903" d="M838.3,800.608H671.01V710.531L658.036,587.314,467.11,507.879l-.69-202.116,3.141,1.363L757,431.847,1042.865,305.74v201.2L850.8,587.314,838.3,710.531Zm-162.669-4.481H833.887V549.092l204.59-85.94V312.6L757.068,436.767l-.9-.393-285.2-123.8-1.494,150.575,206.153,85.94V796.127Z" transform="translate(-466.42 -305.74)" fill="#dcefff"/>
  <path id="Path_2904" d="M772.39,496.913,671.25,540.851V354.132L772.39,309.74Z" transform="translate(-198.162 -300.501)" fill="#5a6377"/>
  <path id="Path_2905" d="M467.42,467.745l101.14,51.988v-165.6L467.42,309.74Z" transform="translate(-465.11 -300.501)" fill="#9ea4b1"/>
  <path id="Path_2912" d="M818.458,371.333,679.74,431.546V624.818a2.379,2.379,0,1,1-4.758,0V431.546l-147.01-60.213a2.448,2.448,0,1,1,1.871-4.5l147.564,60.4,139.226-60.4a2.448,2.448,0,0,1,3.233,1.27,2.494,2.494,0,0,1-1.409,3.234Z" transform="translate(-388.053 -226.101)" fill="#191919"/>
  <path id="Path_2915" d="M626.46,684.154V460.487L831.05,375.93v40.812L642.235,497.811l2.518,178.167Z" transform="translate(-256.822 -213.815)" fill="#081724"/>
  <path id="Path_2916" d="M671.87,684.154V460.487L467.28,375.93v40.812l188.815,81.069-2.518,178.167Z" transform="translate(-465.294 -213.815)" fill="#081724"/>
  <path id="Path_2917" d="M558.41,410.56V656.516l11.756-14.689V415.5Z" transform="translate(-345.944 -168.461)" fill="#9ea4b1"/>
  <path id="Path_2918" d="M630.576,410.56V656.516L618.82,641.826V415.5Z" transform="translate(-266.828 -168.461)" fill="#5a6377"/>
  <path id="Path_2919" d="M576.84,530.512l34.229-34.252,34.252,34.252" transform="translate(-321.807 -56.224)" fill="#5a6377"/>
</svg>
