<svg xmlns="http://www.w3.org/2000/svg"  width="249" height="442" viewBox="0 0 249.58 442.17">
  <defs>
    <linearGradient id="linear-gradient" x1="0.5" x2="0.5" y2="1" gradientUnits="objectBoundingBox">
      <stop offset="0" stop-color="#4ecfdf"/>
      <stop offset="0.11" stop-color="#32b3db"/>
      <stop offset="0.24" stop-color="#1798d7"/>
      <stop offset="0.36" stop-color="#0687d5"/>
      <stop offset="0.44" stop-color="#0081d4"/>
      <stop offset="0.5" stop-color="#0f90d6"/>
      <stop offset="0.62" stop-color="#2aabda"/>
      <stop offset="0.75" stop-color="#3ebfdd"/>
      <stop offset="0.87" stop-color="#4acbde"/>
      <stop offset="1" stop-color="#4ecfdf"/>
    </linearGradient>
    <linearGradient id="linear-gradient-2" x1="0.5" y1="0" x2="0.5" y2="1" />
    <linearGradient id="linear-gradient-3" x1="0.5" y1="1" x2="0.5" y2="0" />
    <linearGradient id="linear-gradient-4" x1="-11.841" y1="1" x2="-11.841" y2="0" />
    <clipPath id="clip-path">
      <rect id="Rectangle_3186"  width="247.62" height="247.62" transform="translate(467.42 136.32)" fill="none"/>
    </clipPath>
  </defs>
  <g id="Group_566"  transform="translate(-466.42 -77.83)">
    <rect id="Rectangle_3185"  width="247.62" height="247.62" transform="translate(467.42 136.32)" fill="#4ecfdf"/>
    <path id="Path_2895"  d="M527.55,77.83H654.91a2.65,2.65,0,0,1,2.65,2.65V91.3H524.9V80.48a2.65,2.65,0,0,1,2.65-2.65Z" fill="#1e1e1e"/>
    <path id="Path_2896"  d="M477.48,77.83H488.3a1.32,1.32,0,0,1,1.32,1.32V91.3H476.15V79.15a1.32,1.32,0,0,1,1.33-1.32Z" fill="#1e1e1e"/>
    <path id="Path_2897"  d="M497.87,77.83H508.7a1.32,1.32,0,0,1,1.3,1.32V91.3H496.55V79.15A1.32,1.32,0,0,1,497.87,77.83Z" fill="#1e1e1e"/>
    <path id="Path_2898"  d="M522.23,304.36,497.85,136.32H467.42v143Z" fill="url(#linear-gradient)"/>
    <path id="Path_2899"  d="M660.23,304.36l24.38-168.04h30.43v143Z" fill="url(#linear-gradient-2)"/>
    <path id="Path_2900"  d="M560.4,267.18l-28.55,4.24L511.57,135h28.56Z" fill="url(#linear-gradient-3)"/>
    <path id="Path_2901"  d="M622.43,267.18l28.55,4.24L671.25,135H642.7Z" fill="url(#linear-gradient-4)"/>
    <path id="Path_2902"  d="M592.26,361.41,467.42,307.22V470.2L556,480.1v38.92h70.46V480.1l88.58-9.9V307.22Z" fill="#767e94"/>
    <path id="Path_2903"  d="M627.43,520H555V481l-88.58-9.9V305.75l1.36.59,124.45,54L716,305.74V471.06L627.43,481ZM557,518.06h68.52V479.23l88.58-9.9V308.71L592.26,362.47l-.39-.17L468.39,308.7V469.33l88.58,9.9Z" fill="#dcefff"/>
    <path id="Path_2904"  d="M714.22,420.32H671.25V328.96l43.79-19.22Z" fill="#5a6377"/>
    <path id="Path_2905"  d="M468.24,420.32h42.97V328.96l-43.79-19.22Z" fill="#9ea4b1"/>
    <path id="Path_2906"  d="M467.42,375.93,556,412.54v96.84l-88.58-38.93Z" fill="#202d3b"/>
    <path id="Path_2907"  d="M557,510.86l-90.52-39.77V374.48L557,411.89Zm-88.58-41L555,507.9V413.19l-86.64-35.81Z" fill="#dcefff"/>
    <path id="Path_2908"  d="M715.04,375.93l-88.58,36.61v96.84l88.58-38.93Z" fill="#202d3b"/>
    <path id="Path_2909"  d="M625.49,510.86v-99l.6-.24L716,374.48v96.61l-.58.25Zm1.94-97.67V507.9l86.64-38.08V377.38Z" fill="#dcefff"/>
    <path id="Path_2910"  d="M555.86,496.26l-66.54-29.82V403.06l-22.04-9.46.12,63.02-.12-.05.14,13.88L556,509.38Z" fill="#2a3e51"/>
    <path id="Path_2911"  d="M626.53,496.26l66.55-29.82V403.06l22.03-9.46L715,456.62l.11-.05-.14,13.88-88.58,38.93Z" fill="#2a3e51"/>
    <path id="Path_2912"  d="M652.77,368.62l-60.06,26.07v83.68a1.03,1.03,0,1,1-2.06,0V394.69L527,368.62a1.06,1.06,0,1,1,.81-1.95l63.89,26.15,60.28-26.15a1.06,1.06,0,0,1,1.4.55,1.08,1.08,0,0,1-.61,1.4Z" fill="#191919"/>
    <g id="Group_563"  clip-path="url(#clip-path)">
      <path id="Path_2913"  d="M592.26,363.52l-.77-.33L463.44,307.61l1.54-3.55L592.25,359.3l125.87-55.55,1.56,3.54Z" fill="#303030"/>
    </g>
    <rect id="Rectangle_3187"  width="247.62" height="43.83" transform="translate(467.42 91.3)" fill="#62657e"/>
    <path id="Path_2914"  d="M716,136.1H466.45V90.33H716Zm-247.62-1.93H714.07V92.27H468.39Z" fill="#dcefff"/>
    <rect id="Rectangle_3188"  width="179.42" height="45.12" transform="translate(467.42 91.3)" fill="#767e94"/>
    <rect id="Rectangle_3189"  width="31.95" height="45.12" transform="translate(504.58 91.3)" fill="#9ea4b1"/>
    <rect id="Rectangle_3190"  width="6.24" height="43.17" transform="translate(467.42 91.3)" fill="#babace"/>
    <rect id="Rectangle_3191"  width="6.62" height="43.17" transform="translate(708.42 91.3)" fill="#434a72"/>
    <rect id="Rectangle_3192"  width="247.62" height="4.37" transform="translate(467.42 133.85)" fill="#262626"/>
    <rect id="Rectangle_3193"  width="247.62" height="2.57" transform="translate(467.4 111.71)" fill="#3b3f59"/>
    <rect id="Rectangle_3194"  width="79.62" height="21.43" transform="translate(551.4 102.27)" fill="#3b3f59"/>
    <rect id="Rectangle_3195"  width="3.09" height="14.15" transform="translate(618.76 105.91)" fill="#4aff24"/>
    <rect id="Rectangle_3196"  width="3.09" height="14.15" transform="translate(623.62 105.91)" fill="#4aff24"/>
    <rect id="Rectangle_3197"  width="3.09" height="14.15" transform="translate(609.08 105.91)" fill="#4aff24"/>
    <rect id="Rectangle_3198"  width="3.09" height="14.15" transform="translate(613.93 105.91)" fill="#4aff24"/>
    <rect id="Rectangle_3199"  width="3.09" height="14.15" transform="translate(599.34 105.91)" fill="#4aff24"/>
    <rect id="Rectangle_3200"  width="3.09" height="14.15" transform="translate(604.19 105.91)" fill="#4aff24"/>
    <rect id="Rectangle_3201"  width="3.09" height="14.15" transform="translate(589.66 105.91)" fill="#4aff24"/>
    <rect id="Rectangle_3202"  width="3.09" height="14.15" transform="translate(594.51 105.91)" fill="#4aff24"/>
    <rect id="Rectangle_3203"  width="3.09" height="14.15" transform="translate(579.97 105.91)" fill="#4aff24"/>
    <rect id="Rectangle_3204"  width="3.09" height="14.15" transform="translate(584.83 105.91)" fill="#4aff24"/>
    <rect id="Rectangle_3205"  width="3.09" height="14.15" transform="translate(570.29 105.91)" fill="#4aff24"/>
    <rect id="Rectangle_3206"  width="3.09" height="14.15" transform="translate(575.14 105.91)" fill="#4aff24"/>
    <rect id="Rectangle_3207"  width="3.09" height="14.15" transform="translate(560.55 105.91)" fill="#4aff24"/>
    <rect id="Rectangle_3208"  width="3.09" height="14.15" transform="translate(565.4 105.91)" fill="#4aff24"/>
    <rect id="Rectangle_3209"  width="3.09" height="14.15" transform="translate(555.72 105.91)" fill="#4aff24"/>
    <path id="Path_2915"  d="M626.46,509.38V412.54l88.58-36.61V393.6l-81.75,35.1,1.09,77.14Z" fill="#081724"/>
    <path id="Path_2916"  d="M555.86,509.38V412.54l-88.58-36.61V393.6l81.75,35.1-1.09,77.14Z" fill="#081724"/>
    <path id="Path_2917"  d="M558.41,410.56V517.05l5.09-6.36V412.7Z" fill="#9ea4b1"/>
    <path id="Path_2918"  d="M623.91,410.56V517.05l-5.09-6.36V412.7Z" fill="#5a6377"/>
    <path id="Path_2919"  d="M576.84,511.09l14.82-14.83,14.83,14.83" fill="#5a6377"/>
  </g>
</svg>
