<svg xmlns="http://www.w3.org/2000/svg" width="42" height="47.996" viewBox="0 0 42 47.996">
  <path id="path1_stroke" data-name="path1 stroke" d="M116.337,306.916l1.119-1.432a1.844,1.844,0,0,0-2.239,0Zm19.182,5.579,1.831.03a1.8,1.8,0,0,0-.526-1.3,1.84,1.84,0,0,0-1.3-.541Zm-19.182,38.794-1.014,1.508a1.842,1.842,0,0,0,2.027,0ZM97.183,312.495v-1.811a1.84,1.84,0,0,0-1.3.541,1.8,1.8,0,0,0-.526,1.3Zm18.034-4.147c8.3,6.369,17.807,5.959,20.3,5.959v-3.624c-2.582,0-10.862.323-18.062-5.2Zm18.473,4.117a142.884,142.884,0,0,1-1.185,18.747c-.68,4.351-1.652,6.958-2.9,8.79a14.466,14.466,0,0,1-5.213,4.425c-2.377,1.409-5.378,2.927-9.066,5.352l2.027,3.017c3.509-2.315,6.434-3.79,8.918-5.26a19.415,19.415,0,0,0,6.365-5.505c1.677-2.455,2.766-5.654,3.482-10.265a147.778,147.778,0,0,0,1.23-19.243Zm-16.34,37.315c-3.688-2.426-6.688-3.94-9.061-5.352a14.377,14.377,0,0,1-5.2-4.424c-1.244-1.831-2.216-4.433-2.894-8.79a143.454,143.454,0,0,1-1.183-18.749l-3.659.059a148.346,148.346,0,0,0,1.225,19.241c.718,4.611,1.8,7.81,3.482,10.265a19.364,19.364,0,0,0,6.357,5.506c2.48,1.469,5.4,2.945,8.914,5.26ZM97.18,314.307c2.471,0,11.973.41,20.273-5.959l-2.239-2.864c-7.2,5.522-15.481,5.2-18.034,5.2Z" transform="translate(-95.35 -305.105)" fill="#3375bb"/>
</svg>
